<svg width="24" height="24" viewBox="0 0 24 24" fill="none" xmlns="http://www.w3.org/2000/svg">
<path d="M18.8 7.20001H5.19995" stroke="#F35757" stroke-width="1.5" stroke-linecap="round"/>
<path d="M17.4667 9.20001L17.0987 14.7193C16.9571 16.8432 16.8863 17.9052 16.1943 18.5526C15.5023 19.2 14.438 19.2 12.3093 19.2H11.6906C9.562 19.2 8.49768 19.2 7.80568 18.5526C7.11367 17.9052 7.04287 16.8432 6.90128 14.7193L6.53333 9.20001" stroke="#F35757" stroke-width="1.5" stroke-linecap="round"/>
<path d="M10 11.2L10.4 15.2" stroke="#F35757" stroke-width="1.5" stroke-linecap="round"/>
<path d="M14 11.2L13.6 15.2" stroke="#F35757" stroke-width="1.5" stroke-linecap="round"/>
<path d="M7.59998 7.19999C7.64468 7.19999 7.66703 7.19999 7.68729 7.19947C8.34605 7.18278 8.92719 6.76391 9.15135 6.14424C9.15824 6.12518 9.16531 6.10398 9.17945 6.06157L9.25712 5.82856C9.32342 5.62965 9.35657 5.53019 9.40055 5.44575C9.57598 5.10885 9.90057 4.8749 10.2757 4.815C10.3697 4.79999 10.4745 4.79999 10.6842 4.79999H13.3158C13.5254 4.79999 13.6303 4.79999 13.7243 4.815C14.0994 4.8749 14.424 5.10885 14.5994 5.44575C14.6434 5.53019 14.6765 5.62965 14.7428 5.82856L14.8205 6.06157C14.8346 6.10392 14.8417 6.1252 14.8486 6.14424C15.0728 6.76391 15.6539 7.18278 16.3127 7.19947C16.3329 7.19999 16.3553 7.19999 16.4 7.19999" stroke="#F35757" stroke-width="1.5"/>
</svg>
